<?xml version="1.0" standalone="no"?>
<!DOCTYPE svg PUBLIC "-//W3C//DTD SVG 20010904//EN"
 "http://www.w3.org/TR/2001/REC-SVG-20010904/DTD/svg10.dtd">
<svg version="1.0" xmlns="http://www.w3.org/2000/svg"
 width="260.000000pt" height="260.000000pt" viewBox="0 0 260.000000 260.000000"
 preserveAspectRatio="xMidYMid meet">
<metadata>
Created by potrace 1.14, written by Peter Selinger 2001-2017
</metadata>
<g transform="translate(0.000000,260.000000) scale(0.100000,-0.100000)"
fill="#000000" stroke="none">
<path d="M1303 2483 c9 -2 23 -2 30 0 6 3 -1 5 -18 5 -16 0 -22 -2 -12 -5z"/>
<path d="M1107 2470 c26 -11 173 -9 173 2 0 4 -44 8 -97 7 -66 0 -91 -3 -76
-9z"/>
<path d="M1022 2459 c-13 -5 -37 -11 -53 -14 -38 -7 -111 -35 -124 -48 -7 -7
-3 -7 10 -2 11 4 43 12 70 18 28 6 52 13 55 16 3 3 16 7 30 9 13 1 27 8 31 14
4 6 14 8 23 5 9 -4 16 -2 16 3 0 12 -27 12 -58 -1z"/>
<path d="M1111 2436 c-8 -10 -6 -19 9 -38 10 -14 16 -28 13 -32 -3 -3 3 -6 14
-6 15 0 20 5 18 18 -2 9 -4 23 -4 30 -1 6 -9 12 -18 13 -11 0 -13 3 -5 6 6 2
12 9 12 14 0 14 -26 11 -39 -5z"/>
<path d="M1418 2422 c-21 -4 -32 -33 -16 -44 8 -4 -4 -8 -30 -8 -26 0 -41 4
-37 10 3 6 0 10 -9 10 -8 0 -16 -6 -18 -12 -3 -9 -10 -8 -22 5 -10 10 -21 15
-25 11 -3 -4 0 -9 7 -11 22 -8 1 -23 -33 -23 -19 0 -37 -4 -40 -10 -3 -5 -19
-10 -35 -10 -15 0 -30 -7 -34 -15 -3 -10 -19 -15 -43 -15 -21 0 -69 -7 -108
-15 -38 -8 -80 -15 -92 -15 -13 0 -23 -4 -23 -10 0 -5 -10 -10 -22 -10 -21 0
-36 -10 -105 -69 -12 -10 -25 -16 -28 -13 -3 3 -5 0 -5 -7 0 -7 -6 -11 -14 -8
-7 3 -37 -17 -67 -44 -30 -27 -70 -64 -89 -82 -20 -18 -49 -52 -66 -77 -17
-25 -52 -75 -77 -113 -26 -37 -47 -77 -47 -88 0 -19 -26 -76 -40 -89 -3 -3
-21 -36 -40 -74 -32 -65 -34 -75 -37 -200 -3 -72 -9 -144 -14 -160 -5 -16 -9
-41 -8 -55 l1 -26 7 25 c6 22 8 19 14 -20 4 -25 9 -68 11 -95 3 -52 27 -99 80
-160 14 -16 26 -33 26 -36 0 -3 15 -26 34 -50 19 -23 32 -47 30 -51 -3 -5 4
-21 15 -37 11 -15 18 -31 14 -34 -11 -11 25 -72 67 -112 85 -84 98 -95 109
-95 6 0 11 -4 11 -9 0 -5 8 -12 17 -15 10 -3 47 -32 82 -64 64 -59 133 -91
167 -78 9 4 23 1 31 -5 10 -9 17 -9 25 -1 14 14 32 16 23 3 -3 -6 20 -10 56
-10 46 1 65 5 80 20 10 10 25 16 33 13 9 -3 29 4 45 15 l30 22 22 -31 c14 -18
32 -30 46 -30 12 0 27 -9 33 -20 9 -17 14 -18 33 -9 12 7 36 12 53 11 24 -1
33 4 37 19 3 11 15 23 26 26 12 3 21 9 21 14 0 5 9 9 20 9 13 0 22 9 26 25 6
26 7 26 21 5 8 -11 21 -20 30 -20 11 0 13 -5 8 -18 -18 -42 -12 -57 27 -60 26
-2 41 2 55 17 13 14 38 21 91 27 61 6 83 13 135 46 69 44 247 220 247 243 0 8
5 15 10 15 6 0 16 12 22 28 7 15 26 41 43 58 44 44 57 81 81 217 3 20 10 37
15 37 5 0 9 6 9 14 0 8 8 21 19 28 36 26 68 270 38 299 -8 8 -16 47 -20 93 -8
86 -18 128 -48 191 -10 22 -19 50 -19 63 0 12 -3 22 -7 22 -5 0 -9 11 -9 25
-3 43 14 27 22 -20 6 -46 11 -49 52 -38 19 4 22 10 17 27 -4 11 -9 39 -11 61
-2 22 -9 42 -14 43 -6 2 -10 9 -10 16 0 11 -21 33 -47 49 -6 4 -21 -2 -34 -13
-23 -21 -46 -21 -42 -1 2 6 -2 11 -7 11 -6 0 -10 7 -10 15 0 8 -5 15 -11 15
-6 0 -9 7 -5 15 3 8 1 15 -4 15 -6 0 -10 7 -10 15 0 8 4 15 9 15 5 0 4 11 -2
25 -8 18 -18 25 -32 23 -22 -4 -60 28 -45 37 5 3 11 1 15 -5 8 -13 18 -13 40
4 18 13 18 15 2 30 -9 10 -17 26 -17 38 0 16 -5 19 -29 13 -24 -5 -30 -2 -36
15 -4 12 -11 17 -18 13 -6 -4 -26 -6 -45 -5 l-34 3 21 -30 c31 -43 26 -46 -16
-14 -21 17 -46 33 -57 36 -11 4 -16 13 -12 22 3 8 0 15 -6 15 -7 0 -9 14 -5
40 4 34 3 39 -8 30 -11 -9 -17 -5 -30 19 -8 17 -22 31 -29 31 -34 0 -76 -14
-73 -24 2 -6 -8 -17 -21 -24 -23 -11 -33 -9 -104 25 -43 21 -78 41 -78 45 0 4
24 5 54 2 42 -3 55 -1 60 11 6 17 36 21 36 5 0 -5 7 -10 15 -10 28 0 15 19
-30 41 -25 12 -45 26 -45 30 0 4 -13 9 -30 11 -16 3 -30 1 -30 -4 0 -4 -13 -8
-30 -8 -16 0 -30 5 -30 10 0 6 -7 10 -16 10 -8 0 -13 4 -9 9 5 9 -37 10 -77 3z
m72 -72 c0 -13 -11 -13 -30 0 -12 8 -11 10 8 10 12 0 22 -4 22 -10z m350 -120
c-8 -5 -17 -7 -19 -4 -3 3 1 9 9 14 8 5 17 7 19 4 3 -3 -1 -9 -9 -14z m-240
-176 c0 -20 -59 -104 -94 -134 l-41 -34 64 -23 c54 -19 78 -35 143 -100 43
-43 78 -80 78 -84 0 -4 -19 -9 -42 -13 l-42 -7 69 -69 69 -70 -62 0 c-34 0
-62 -2 -62 -5 0 -3 29 -42 65 -88 35 -45 61 -83 56 -85 -4 -1 -45 13 -90 33
-46 19 -86 35 -91 35 -4 0 -10 -22 -14 -50 -4 -27 -9 -50 -13 -50 -3 0 -34 25
-68 55 l-63 55 -26 -45 c-15 -25 -30 -45 -34 -45 -4 0 -27 25 -51 55 -24 30
-47 55 -51 55 -4 0 -13 -13 -20 -30 -8 -20 -17 -27 -25 -22 -7 4 -47 48 -89
98 -53 64 -83 92 -99 93 -119 4 -159 15 -195 53 l-22 25 20 18 c11 10 20 26
20 37 0 19 15 25 24 9 3 -4 34 -12 68 -15 35 -4 77 -10 93 -13 26 -6 28 -4 18
9 -40 47 -203 99 -203 64 0 -23 -17 -20 -25 4 -4 11 -19 27 -34 35 -21 11 -31
26 -40 62 -7 26 -14 56 -17 66 -5 16 6 17 141 17 l146 0 17 29 c15 27 24 31
82 37 36 4 105 2 155 -5 88 -11 92 -10 180 19 96 31 105 33 105 24z m640 -234
c0 -5 -5 -10 -11 -10 -5 0 -7 5 -4 10 3 6 8 10 11 10 2 0 4 -4 4 -10z m40 -10
c0 -5 -8 -10 -17 -10 -15 0 -16 2 -3 10 19 12 20 12 20 0z m-1562 -742 c2 -21
7 -38 13 -38 5 0 9 -27 9 -60 l0 -60 -105 0 -105 0 0 49 c0 30 -5 52 -12 55
-10 5 -10 7 0 12 6 3 12 21 12 39 l0 34 63 4 c120 7 122 7 125 -35z m454 36
c3 -3 4 -14 1 -25 -4 -15 -14 -19 -47 -19 -23 0 -51 -7 -62 -15 -17 -13 -12
-14 54 -15 80 0 84 -5 52 -57 -30 -50 -60 -64 -127 -61 -54 3 -58 5 -58 28 0
23 4 25 45 28 107 6 127 32 25 32 -39 0 -65 4 -65 10 0 26 32 68 62 83 32 16
109 23 120 11z m228 -93 c0 -95 -1 -100 -22 -104 -20 -4 -19 -4 5 -6 22 -1 27
-6 27 -26 0 -37 -49 -34 -93 4 -22 20 -46 31 -72 33 l-40 3 -3 84 c-2 46 -1
90 2 98 4 9 30 13 101 13 l95 0 0 -99z m115 80 c68 -31 115 -96 115 -157 0
-20 -5 -24 -30 -24 -24 0 -30 4 -30 23 0 52 -11 67 -46 67 -34 0 -34 -1 -34
-45 0 -43 -1 -45 -30 -45 -29 0 -30 2 -30 45 0 25 -4 45 -10 45 -5 0 -10 7
-10 15 0 8 5 15 10 15 6 0 10 15 10 33 0 53 18 59 85 28z m330 -36 l0 -50 -43
-3 c-37 -3 -42 -6 -31 -18 6 -8 29 -14 50 -14 29 0 39 -5 44 -20 10 -30 -2
-40 -50 -40 -34 0 -50 6 -74 29 l-31 29 0 -30 c0 -26 -3 -29 -27 -26 -25 3
-28 7 -31 46 -2 23 -7 42 -13 42 -5 0 -9 7 -9 15 0 8 5 15 10 15 6 0 10 15 10
33 0 19 3 37 7 41 4 4 48 5 98 4 l90 -3 0 -50z m85 -15 l0 -70 45 0 44 0 3 68
c3 61 5 67 26 70 22 3 22 1 22 -97 l0 -101 -95 0 -95 0 0 100 0 100 25 0 c24
0 25 -2 25 -70z m-1055 37 c43 -24 81 -82 87 -132 3 -26 -1 -30 -23 -33 -24
-3 -28 2 -38 42 -11 44 -13 46 -46 46 -35 0 -35 0 -35 -45 0 -41 -2 -45 -25
-45 -23 0 -25 4 -25 45 0 25 -4 45 -10 45 -5 0 -10 7 -10 15 0 8 5 15 10 15 6
0 10 16 10 35 0 33 2 35 33 35 17 0 50 -11 72 -23z m-197 -344 c-2 -13 -14
-19 -41 -21 -27 -2 -37 -8 -37 -20 0 -32 29 -62 61 -62 24 0 29 -4 29 -25 0
-22 -4 -25 -35 -25 -45 0 -80 32 -95 89 -8 30 -16 41 -30 41 -13 0 -20 7 -20
20 0 18 7 20 86 20 76 0 85 -2 82 -17z m202 -3 c0 -18 -7 -20 -60 -20 -71 0
-81 -18 -12 -22 55 -4 59 -21 6 -28 -31 -4 -35 -7 -23 -17 8 -6 35 -13 59 -15
38 -2 46 -7 48 -25 4 -29 -31 -38 -87 -23 -31 8 -48 20 -63 46 -11 19 -23 34
-26 34 -4 0 -8 20 -9 45 l-1 45 84 0 c77 0 84 -2 84 -20z m210 -70 l0 -90 -74
0 c-108 0 -106 -2 -106 96 l0 84 90 0 90 0 0 -90z m200 45 c0 -45 0 -45 -35
-45 -36 0 -47 -13 -19 -24 9 -3 29 -6 45 -6 24 0 29 -4 29 -24 0 -14 -4 -28
-10 -31 -18 -11 -79 7 -104 30 l-25 23 -3 -27 c-2 -18 -10 -27 -25 -29 -21 -3
-23 1 -23 42 0 25 -4 46 -10 46 -5 0 -10 7 -10 15 0 8 5 15 10 15 6 0 10 14
10 30 l0 30 85 0 85 0 0 -45z m188 28 c-2 -9 -14 -20 -27 -23 -20 -4 -24 -12
-25 -42 -1 -33 2 -38 24 -40 19 -2 25 -9 25 -28 0 -24 -3 -25 -72 -28 l-73 -3
0 31 c0 25 4 30 25 30 23 0 25 4 25 40 0 36 -2 40 -25 40 -18 0 -25 5 -25 20
0 18 7 20 76 20 66 0 75 -2 72 -17z m116 -6 c51 -29 76 -64 83 -115 5 -40 4
-42 -19 -42 -22 0 -27 7 -37 45 -10 41 -14 45 -41 45 -29 0 -30 -2 -30 -46 0
-41 -2 -45 -22 -42 -19 2 -24 10 -26 46 -2 23 -7 42 -13 42 -5 0 -9 7 -9 15 0
8 5 15 10 15 6 0 10 14 10 30 0 26 4 30 28 30 15 0 45 -10 66 -23z m276 3 c0
-16 -7 -20 -32 -21 -18 -1 -44 -5 -58 -9 -19 -6 -9 -8 38 -9 69 -1 76 -10 45
-61 -23 -39 -55 -54 -116 -55 -49 0 -52 1 -55 28 -3 26 -2 27 47 27 54 0 81 7
81 21 0 5 -27 9 -60 9 -70 0 -78 14 -31 61 26 25 37 29 85 29 49 0 56 -2 56
-20z m80 -10 c0 -28 3 -30 35 -30 32 0 35 2 35 30 0 25 4 30 25 30 23 0 25 -4
25 -45 0 -43 -1 -45 -30 -45 -29 0 -30 -2 -30 -46 0 -44 -1 -45 -27 -42 -25 3
-28 7 -31 46 -3 39 -5 42 -33 42 -28 0 -29 2 -29 45 0 43 1 45 30 45 27 0 30
-3 30 -30z"/>
<path d="M580 1045 c0 -11 11 -15 40 -15 29 0 40 4 40 15 0 11 -11 15 -40 15
-29 0 -40 -4 -40 -15z"/>
<path d="M587 1004 c-21 -21 -5 -34 44 -34 42 0 50 3 47 17 -2 12 -15 18 -43
21 -22 2 -44 0 -48 -4z"/>
<path d="M1260 1015 l0 -45 45 0 45 0 0 45 0 45 -45 0 -45 0 0 -45z"/>
<path d="M1490 1040 c0 -6 7 -10 15 -10 8 0 15 2 15 4 0 2 -7 6 -15 10 -8 3
-15 1 -15 -4z"/>
<path d="M1710 1045 c0 -10 11 -15 35 -15 24 0 35 5 35 15 0 10 -11 15 -35 15
-24 0 -35 -5 -35 -15z"/>
<path d="M820 1040 c0 -5 10 -10 23 -10 18 0 19 2 7 10 -19 13 -30 13 -30 0z"/>
<path d="M960 670 l0 -40 45 0 45 0 0 40 0 40 -45 0 -45 0 0 -40z"/>
<path d="M1170 700 c0 -5 16 -10 35 -10 19 0 35 5 35 10 0 6 -16 10 -35 10
-19 0 -35 -4 -35 -10z"/>
<path d="M1220 2396 c0 -9 5 -16 10 -16 6 0 10 4 10 9 0 6 -4 13 -10 16 -5 3
-10 -1 -10 -9z"/>
<path d="M770 2370 c-13 -8 -13 -10 2 -10 9 0 20 5 23 10 8 13 -5 13 -25 0z"/>
<path d="M1060 2376 c0 -2 7 -6 15 -10 8 -3 15 -1 15 4 0 6 -7 10 -15 10 -8 0
-15 -2 -15 -4z"/>
<path d="M1830 2350 c-12 -8 -11 -10 7 -10 12 0 25 5 28 10 8 13 -15 13 -35 0z"/>
<path d="M895 2330 c-3 -5 -2 -10 4 -10 5 0 13 5 16 10 3 6 2 10 -4 10 -5 0
-13 -4 -16 -10z"/>
<path d="M598 2256 c-8 -7 -23 -16 -34 -20 -18 -5 -30 -36 -15 -36 12 0 86 69
74 70 -6 0 -18 -6 -25 -14z"/>
<path d="M1946 2247 c3 -10 1 -17 -5 -17 -6 0 -11 -4 -11 -10 0 -12 37 -13 44
-1 3 4 -4 17 -15 27 -18 16 -19 16 -13 1z"/>
<path d="M1931 2174 c0 -11 3 -14 6 -6 3 7 2 16 -1 19 -3 4 -6 -2 -5 -13z"/>
<path d="M460 2133 c-18 -21 -36 -36 -38 -35 -2 2 -7 0 -10 -4 -4 -4 -1 -4 7
1 9 5 12 4 7 -3 -4 -6 -13 -9 -21 -6 -15 6 -123 -123 -156 -187 -10 -22 -24
-39 -30 -39 -6 0 -7 -4 -4 -10 3 -5 1 -10 -5 -10 -6 0 -8 -4 -5 -10 3 -5 1
-10 -5 -10 -6 0 -8 -4 -5 -10 3 -5 2 -10 -2 -10 -5 0 -9 -10 -10 -22 -1 -11
-8 -25 -15 -29 -7 -5 -9 -9 -4 -9 5 0 3 -6 -3 -13 -6 -8 -8 -17 -4 -20 3 -4 1
-7 -6 -7 -8 0 -11 -7 -7 -15 3 -8 1 -15 -5 -15 -6 0 -7 -5 -3 -11 3 -6 2 -14
-4 -18 -57 -35 -58 -639 -1 -707 5 -6 5 -15 1 -19 -4 -5 -1 -5 6 -1 8 5 10 16
6 28 -3 11 0 31 7 45 11 21 10 29 -5 57 -13 24 -16 43 -10 71 7 38 7 38 24 18
22 -28 39 -16 33 24 -3 18 -9 30 -14 27 -5 -3 -9 2 -9 10 0 9 -7 16 -16 16
-14 0 -14 -3 -4 -15 10 -13 9 -15 -9 -15 -16 0 -21 6 -21 28 0 15 6 34 12 41
11 11 10 14 0 18 -6 3 -10 9 -7 13 3 5 8 44 11 87 7 121 21 229 32 249 5 11
15 43 22 72 6 29 28 83 47 120 19 37 32 59 29 50 -9 -28 2 -21 19 12 19 38 19
49 -1 24 -25 -31 -4 5 48 84 27 40 57 76 66 79 29 10 120 113 99 113 -1 0 -18
-17 -37 -37z"/>
<path d="M2231 2023 c7 -12 15 -20 18 -17 3 2 -3 12 -13 22 -17 16 -18 16 -5
-5z"/>
<path d="M2187 2003 c3 -7 11 -13 19 -13 7 0 11 6 8 13 -3 8 -11 14 -18 14 -8
0 -12 -6 -9 -14z"/>
<path d="M2224 1969 c-2 -4 2 -10 8 -13 9 -3 8 -8 -4 -16 -10 -6 -18 -16 -18
-21 0 -6 4 -8 9 -4 5 3 12 1 16 -4 3 -5 15 -9 26 -8 14 1 19 7 16 19 -3 10 -1
21 4 24 5 3 9 0 9 -7 0 -7 3 -10 6 -6 3 3 1 13 -4 23 -10 17 -59 26 -68 13z"/>
<path d="M2310 1881 c0 -6 4 -13 10 -16 6 -3 7 1 4 9 -7 18 -14 21 -14 7z"/>
<path d="M2367 1660 c-17 -25 -23 -70 -9 -70 20 0 40 40 33 66 l-7 28 -17 -24z"/>
<path d="M2382 1568 c2 -6 10 -14 16 -16 7 -2 10 2 6 12 -7 18 -28 22 -22 4z"/>
<path d="M2390 1525 c9 -10 9 -15 1 -15 -6 0 -11 -5 -11 -12 0 -6 3 -9 6 -5 4
3 13 0 20 -8 16 -16 19 -29 4 -20 -5 3 -10 1 -10 -4 0 -13 10 -14 27 -3 20 13
-5 82 -30 82 -16 0 -17 -3 -7 -15z"/>
<path d="M140 1401 c0 -6 5 -13 10 -16 6 -3 10 1 10 9 0 9 -4 16 -10 16 -5 0
-10 -4 -10 -9z"/>
<path d="M144 1320 c-1 -17 3 -29 8 -28 5 2 9 7 9 11 -1 4 -1 16 -1 27 0 32
-15 23 -16 -10z"/>
<path d="M2442 1240 c0 -19 2 -27 5 -17 2 9 2 25 0 35 -3 9 -5 1 -5 -18z"/>
<path d="M2396 1061 c-4 -6 -2 -11 5 -11 7 0 10 -13 7 -36 -4 -32 -3 -34 9
-18 7 11 16 24 21 29 11 14 3 37 -10 29 -6 -4 -14 -1 -18 6 -5 9 -9 9 -14 1z"/>
<path d="M2430 925 c0 -8 -4 -15 -10 -15 -5 0 -10 -7 -10 -15 0 -12 -27 -65
-80 -155 -14 -25 -40 -87 -40 -97 0 -14 -59 -67 -67 -60 -3 4 -1 7 5 7 6 0 9
6 6 14 -3 7 2 16 10 19 9 4 16 11 16 17 0 6 -5 8 -10 5 -6 -4 -17 -2 -25 5
-11 9 -16 7 -25 -10 -6 -11 -18 -19 -27 -18 -9 2 -18 -3 -21 -11 -3 -9 0 -11
8 -6 9 6 9 2 -1 -16 -17 -32 -118 -131 -128 -125 -4 3 -17 -4 -29 -14 -12 -11
-25 -20 -30 -20 -4 0 -21 -14 -37 -30 l-29 -30 34 0 33 0 -22 -19 c-12 -10
-42 -24 -66 -30 -28 -7 -45 -17 -45 -26 0 -8 -7 -15 -15 -15 -8 0 -29 -9 -47
-20 -18 -11 -40 -20 -49 -20 -8 0 -33 -8 -55 -19 -21 -10 -84 -26 -139 -36
-110 -20 -141 -34 -80 -37 50 -2 55 -1 155 16 209 37 517 230 649 406 14 19
33 43 42 53 9 9 22 30 30 45 8 15 17 29 20 32 9 8 85 181 92 213 5 16 3 27 -3
27 -5 0 -10 -7 -10 -15z m-270 -414 c0 -12 -20 -25 -27 -18 -7 7 6 27 18 27 5
0 9 -4 9 -9z m-90 -96 c-13 -14 -26 -22 -29 -19 -3 3 5 14 19 24 34 27 38 25
10 -5z"/>
<path d="M156 861 c-3 -5 -1 -11 4 -13 6 -2 12 -13 13 -26 2 -30 17 -28 17 2
0 26 -24 53 -34 37z"/>
<path d="M202 763 c22 -50 69 -125 113 -182 90 -118 298 -287 415 -336 25 -11
47 -22 50 -25 3 -3 14 -7 25 -8 11 -2 23 -9 27 -15 4 -7 8 -8 8 -3 0 5 7 3 15
-4 8 -7 15 -9 15 -4 0 4 5 3 11 -3 6 -6 18 -9 25 -6 8 3 14 0 14 -6 0 -7 9 -9
25 -5 14 3 25 2 25 -4 0 -5 10 -10 23 -9 12 0 49 -2 82 -6 50 -5 54 -5 25 4
-243 71 -323 106 -445 199 -33 25 -78 54 -99 65 -21 11 -41 25 -43 32 -3 7
-13 13 -22 13 -9 0 -36 20 -60 45 -24 24 -57 49 -72 56 -16 6 -29 19 -29 28 0
10 -15 35 -34 57 -18 21 -39 56 -47 77 -7 20 -23 44 -36 52 -22 15 -23 15 -11
-12z"/>
<path d="M2260 740 c-7 -17 -10 -33 -7 -37 8 -7 46 37 47 55 0 24 -28 11 -40
-18z"/>
<path d="M2225 680 c3 -5 8 -10 11 -10 2 0 4 5 4 10 0 6 -5 10 -11 10 -5 0 -7
-4 -4 -10z"/>
<path d="M2133 593 c-7 -3 -13 -12 -13 -21 0 -15 2 -15 17 1 18 18 16 27 -4
20z"/>
<path d="M2094 541 c4 -5 0 -11 -6 -14 -7 -2 -10 -7 -7 -11 3 -3 14 3 24 14
17 18 17 20 1 20 -9 0 -15 -4 -12 -9z"/>
<path d="M1835 330 c-16 -10 -38 -19 -47 -19 -19 -1 -25 -21 -7 -21 18 0 99
43 99 52 0 12 -11 9 -45 -12z"/>
<path d="M1208 143 c12 -2 30 -2 40 0 9 3 -1 5 -23 4 -22 0 -30 -2 -17 -4z"/>
<path d="M1350 139 c0 -5 5 -7 10 -4 6 3 10 8 10 11 0 2 -4 4 -10 4 -5 0 -10
-5 -10 -11z"/>
<path d="M1293 133 c9 -2 25 -2 35 0 9 3 1 5 -18 5 -19 0 -27 -2 -17 -5z"/>
</g>
</svg>
